<svg id="Layer_1" data-name="Layer 1" xmlns="http://www.w3.org/2000/svg" viewBox="0 0 1750.12 509"><defs><style>.cls-1,.cls-26{stroke:#fff;stroke-miterlimit:10;}.cls-2{font-size:26px;fill:#fff;font-family:Lato-Thin, Lato;font-weight:200;}.cls-3{letter-spacing:-0.02em;}.cls-4{letter-spacing:-0.02em;}.cls-5{letter-spacing:-0.02em;}.cls-6{letter-spacing:-0.01em;}.cls-7{letter-spacing:0em;}.cls-8{letter-spacing:-0.02em;}.cls-9{letter-spacing:-0.02em;}.cls-10{letter-spacing:-0.02em;}.cls-11{letter-spacing:-0.02em;}.cls-12{letter-spacing:0em;}.cls-13{letter-spacing:-0.01em;}.cls-14{letter-spacing:-0.01em;}.cls-15{letter-spacing:-0.01em;}.cls-16{letter-spacing:0em;}.cls-17{letter-spacing:-0.03em;}.cls-18{letter-spacing:-0.01em;}.cls-19{letter-spacing:-0.02em;}.cls-20{letter-spacing:-0.01em;}.cls-21{letter-spacing:-0.02em;}.cls-22{letter-spacing:-0.01em;}.cls-23{letter-spacing:0.03em;}.cls-24{letter-spacing:-0.02em;}.cls-25{letter-spacing:0.01em;}.cls-26{stroke-width:0.5px;}</style></defs><title>logo</title><rect class="cls-1" x="847.62" y="0.5" width="902" height="508"/><text class="cls-2" transform="translate(124.04 53.44)"><tspan class="cls-3">N</tspan><tspan class="cls-4" x="19.03" y="0">a</tspan><tspan class="cls-5" x="31.02" y="0">i</tspan><tspan class="cls-6" x="36.16" y="0">h</tspan><tspan x="50.02" y="0">a </tspan><tspan class="cls-7" x="69.7" y="0">K</tspan><tspan class="cls-8" x="85.97" y="0">h</tspan><tspan class="cls-9" x="99.74" y="0">i</tspan><tspan class="cls-10" x="104.81" y="0">l</tspan><tspan class="cls-11" x="109.85" y="0">j</tspan><tspan class="cls-12" x="115.01" y="0">e</tspan><tspan x="128.42" y="0">e</tspan><tspan class="cls-13" x="-36.83" y="31.2">S</tspan><tspan class="cls-14" x="-23.31" y="31.2">p</tspan><tspan class="cls-15" x="-9.24" y="31.2">o</tspan><tspan class="cls-16" x="4.88" y="31.2">r</tspan><tspan class="cls-17" x="13.94" y="31.2">k</tspan><tspan class="cls-18" x="25.01" y="31.2">e</tspan><tspan x="38.12" y="31.2">n </tspan><tspan class="cls-19" x="59.58" y="31.2">w</tspan><tspan class="cls-20" x="78.69" y="31.2">o</tspan><tspan class="cls-21" x="92.82" y="31.2">r</tspan><tspan x="101.21" y="31.2">d </tspan><tspan class="cls-22" x="122.68" y="31.2">a</tspan><tspan class="cls-23" x="134.78" y="31.2">r</tspan><tspan class="cls-24" x="144.7" y="31.2">ti</tspan><tspan class="cls-25" x="158.96" y="31.2">s</tspan><tspan x="170.04" y="31.2">t</tspan></text><path class="cls-26" d="M2,144H292" transform="translate(46.12 -82)"/><text x="46.12" y="-82"/></svg>
